<?xml version="1.0" encoding="UTF-8" standalone="no"?>
<svg id="svgElementsShowcase" viewBox="0 0 120 120" version="1.1" inkscape:version="1.1 (c4e8f9e, 2021-05-24)" sodipodi:docname="svg-showcase.svg" xmlns:inkscape="http://www.inkscape.org/namespaces/inkscape" xmlns:sodipodi="http://sodipodi.sourceforge.net/DTD/sodipodi-0.dtd" xmlns="http://www.w3.org/2000/svg" xmlns:svg="http://www.w3.org/2000/svg">
	<g inkscape:label="Layer 1" inkscape:groupmode="layer" id="layer1" transform="translate(-20.01404,-27.180182)">
		<line style="fill:none;stroke:#000000;stroke-width:0.141022px;stroke-linecap:butt;stroke-linejoin:miter;stroke-opacity:1" x1="50" y1="100" y2="50" x2="100" id="line3" />
		<rect style="fill:none;fill-rule:evenodd;stroke:#000000;stroke-width:0.264999;stroke-opacity:1" id="rect883" width="50" height="50" x="50" y="50" />
		<circle style="fill:none;fill-rule:evenodd;stroke:#000000;stroke-width:0.341378;stroke-opacity:1" id="path1049" cx="75" cy="75" r="36" />
		<path sodipodi:type="star" style="fill:none;fill-rule:evenodd;stroke:#000000;stroke-width:1.00157;stroke-opacity:1" id="path1258" inkscape:flatsided="true" sodipodi:sides="5" sodipodi:cx="337.34515" sodipodi:cy="413.94754" sodipodi:r1="94.979309" sodipodi:r2="76.839874" sodipodi:arg1="-2.7265179" sodipodi:arg2="-2.0981994" inkscape:rounded="0" inkscape:randomized="0" d="m 250.4309,375.64634 96.48288,-56.19489 83.25936,74.39549 -45.02576,102.17384 -111.08681,-11.24859 z" transform="matrix(0.49707032,0,0,0.47313364,-93.232524,-120.64988)" inkscape:transform-center-x="-1.4697679" inkscape:transform-center-y="-2.9388356" />
		<g aria-label="Text" transform="rotate(5.09558)" id="text3461" style="font-size:10.5833px;line-height:1.25;stroke-width:0.264583;fill:none;stroke-width:0.5;stroke-opacity:1; stroke: black">
			<path d="M 64.540167,106.53161 H 61.79099 v 6.78509 H 60.7678 v -6.78509 h -2.749178 v -0.9095 h 6.521545 z" id="path1855" />
			<path d="m 70.338245,110.53135 h -4.252957 q 0,0.53227 0.160196,0.93018 0.160197,0.39274 0.439249,0.64595 0.268716,0.24805 0.635618,0.37207 0.372069,0.12402 0.816485,0.12402 0.589109,0 1.183386,-0.23254 0.599445,-0.23771 0.852659,-0.46509 h 0.05168 v 1.05937 q -0.490925,0.2067 -1.00252,0.34623 -0.511595,0.13952 -1.074866,0.13952 -1.4366,0 -2.24275,-0.77514 -0.80615,-0.78031 -0.80615,-2.21175 0,-1.41593 0.769977,-2.24791 0.775144,-0.83199 2.036045,-0.83199 1.167883,0 1.798334,0.68212 0.635618,0.68213 0.635618,1.93787 z m -0.945676,-0.74414 q -0.0052,-0.7648 -0.387572,-1.18338 -0.377237,-0.41858 -1.152381,-0.41858 -0.780311,0 -1.245398,0.45992 -0.459919,0.45992 -0.52193,1.14204 z" id="path1857" />
			<path d="m 76.808113,113.3167 h -1.224727 l -1.638138,-2.21691 -1.648473,2.21691 h -1.13171 l 2.253085,-2.87836 -2.232415,-2.89388 h 1.224728 l 1.627802,2.18074 1.63297,-2.18074 h 1.136878 l -2.268588,2.8422 z" id="path1859" />
			<path d="m 81.071406,113.26503 q -0.273884,0.0723 -0.599445,0.11885 -0.320392,0.0465 -0.573606,0.0465 -0.883664,0 -1.343583,-0.47542 -0.459919,-0.47542 -0.459919,-1.52445 v -3.06957 h -0.656288 v -0.81649 h 0.656288 v -1.6588 h 0.971514 v 1.6588 h 2.005039 v 0.81649 h -2.005039 v 2.63032 q 0,0.45475 0.02067,0.71313 0.02067,0.25322 0.144694,0.47543 0.113688,0.2067 0.310058,0.30489 0.201537,0.093 0.60978,0.093 0.23771,0 0.496092,-0.0672 0.258381,-0.0723 0.372069,-0.11885 h 0.05168 z" id="path1861" />
		</g>
		<path sodipodi:type="star" style="fill:none;fill-rule:evenodd;stroke:#000000;stroke-width:1.00157;stroke-opacity:1" id="path2137" inkscape:flatsided="true" sodipodi:sides="5" sodipodi:cx="337.34515" sodipodi:cy="413.94754" sodipodi:r1="94.979309" sodipodi:r2="76.839874" sodipodi:arg1="-2.7265179" sodipodi:arg2="-2.0981994" inkscape:rounded="0" inkscape:randomized="0" d="m 98.876942,114.78185 c 10.715148,-9.51868 18.953498,-19.807457 23.957028,-30.414334 1.93402,-4.099871 3.19469,-7.854156 3.96389,-11.13525 0.35713,-1.52336 0.59891,-2.905067 0.75439,-4.125912 0.15011,-1.178572 0.21744,-2.189079 0.23325,-3.009258 0.006,-0.326172 -0.0451,-0.655533 -0.13184,-0.977951 -0.0864,-0.321306 -0.21214,-0.651786 -0.36767,-0.987648 -0.30687,-0.662665 -0.74879,-1.387015 -1.29726,-2.158327 -0.54366,-0.764543 -1.20355,-1.591276 -1.96377,-2.468714 -0.75193,-0.867853 -1.60551,-1.78931 -2.54683,-2.75307 -1.85286,-1.897035 -4.0509,-3.963205 -6.48127,-6.103131 -2.38486,-2.099854 -4.9926,-4.269863 -7.70056,-6.406062 -5.28498,-4.169093 -10.976019,-8.227237 -15.983215,-11.259184 -2.456251,-1.487304 -4.762583,-2.736297 -6.771283,-3.620082 -0.997709,-0.438971 -1.93417,-0.793258 -2.787599,-1.04139 -0.844377,-0.245499 -1.640973,-0.397058 -2.35341,-0.408933 -0.680906,-0.01135 -1.479626,0.07737 -2.361231,0.239311 -0.884149,0.162407 -1.879239,0.403702 -2.963535,0.711438 -2.160301,0.613117 -4.708446,1.499674 -7.490418,2.58169 -5.542821,2.155816 -12.046176,5.10042 -18.27976,8.227107 -3.113499,1.561692 -6.157945,3.167954 -8.979115,4.742618 -2.825468,1.577063 -5.428741,3.123402 -7.65587,4.563464 -1.116345,0.721828 -2.140536,1.418468 -3.052617,2.08046 -0.913179,0.662791 -1.719723,1.295 -2.396651,1.886871 -0.67481,0.590018 -1.241124,1.157483 -1.657672,1.691017 -0.209578,0.268437 -0.392316,0.542288 -0.532317,0.818867 -0.139073,0.274749 -0.249737,0.579199 -0.28669,0.902518 -0.02911,0.254714 -0.02675,0.533212 -0.0071,0.817219 0.01993,0.288695 0.05951,0.60762 0.11458,0.9501 0.110357,0.686269 0.288747,1.50254 0.520166,2.418419 0.466367,1.845721 1.162809,4.153281 2.00205,6.725836 1.707722,5.234742 4.035898,11.655443 6.319628,17.740605 4.838082,12.891415 9.371951,24.072856 9.373516,24.076726 l 0.22733,0.56246 0.603869,0.0582 c 22.676755,2.18566 42.075433,4.05537 55.217958,5.32209 Z" inkscape:transform-center-x="-1.4697679" inkscape:transform-center-y="-2.9388356" />
	</g>
</svg>
